<svg width="1892" height="902" viewBox="0 0 1892 902" fill="none" xmlns="http://www.w3.org/2000/svg">
<g clip-path="url(#clip0_19_24)">
<rect width="1892" height="902" fill="#4613E6"/>
<path d="M1891 271V361M406 428.5H451H406ZM406 428.5V406V428.5ZM406 428.5V451V428.5ZM451 428.5V406V428.5ZM451 428.5V451V428.5ZM451 406H406H451ZM451 406V361V406ZM361 406H383.5H361ZM361 406V361V406ZM361 406V451V406ZM383.5 406V383.5V406ZM383.5 406H406H383.5ZM394 383.5V361V383.5ZM394 383.5H406H394ZM394 383.5H383.5H394ZM394 361H406H394ZM394 361H383.5H394ZM406 361V373V361ZM406 361H451H406ZM383.5 361H361H383.5ZM383.5 361V383.5V361ZM406 373H394.75H406ZM406 373V383.5V373ZM406 383.5V406V383.5ZM811 68.5001H823H833.5H811ZM811 68.5001V46.0001V68.5001ZM811 68.5001V91V68.5001ZM833.5 68.5001V46.0001V68.5001ZM833.5 68.5001V91V68.5001ZM811 46.0001H823H833.5H811ZM811 46.0001V1.00006V46.0001ZM833.5 46.0001H856H833.5ZM856 46.0001H901H856ZM856 46.0001V91V46.0001ZM856 46.0001V1.00007V46.0001ZM901 46.0001V91.0001V46.0001ZM901 46.0001V1.00007V46.0001ZM901 226H946H901ZM901 226V181V226ZM901 226V271H946L901 226ZM946 226H991H946ZM946 226V271V226ZM856 91H833.5H856ZM856 91L901 91.0001L856 91ZM833.5 91H823H811H833.5ZM811 91H721H811ZM811 91V181V91ZM901 181V91.0001V181ZM901 181H811H901ZM901 181H991H901ZM901 91.0001H991H901ZM181 361V271V361ZM181 361H91.0001H181ZM181 361V451V361ZM181 271V181V271ZM181 271H91.0001H181ZM181 271H271H181ZM181 181V136V181ZM181 181H226H181ZM181 181H91.0001H181ZM181 136V91V136ZM181 136H226H181ZM181 136H91.0001H181ZM181 91V46V91ZM181 91H91.0001H181ZM181 91H226H181ZM181 46H91.0001H181ZM181 46V1.00001V46ZM361 361V271V361ZM271 271V181V271ZM271 271H361H271ZM271 181V136V181ZM271 181H226H271ZM271 181H361H271ZM271 136H226H271ZM271 136V91V136ZM226 136V181V136ZM226 136V91V136ZM361 181H451H361ZM361 181V271V181ZM361 181V91V181ZM451 181H541H451ZM451 181V271V181ZM451 181V91V181ZM541 181H631H541ZM541 181V271V181ZM541 181V91V181ZM631 181H721H631ZM631 181V271V181ZM631 181V91V181ZM721 181V91V181ZM721 181V271V181ZM721 181H811H721ZM226 91V90.625V91ZM226 91H271H226ZM1.00012 46V1H91.0001L1.00012 46ZM1.00012 46H91.0001H1.00012ZM1.00012 46V91V46ZM91.0001 46V1V46ZM91.0001 46V91V46ZM1.00012 91H91.0001H1.00012ZM1.00012 91V136V91ZM91.0001 91V136V91ZM271 91H361H271ZM271 91V1.00002V91ZM361 91H451H361ZM361 91V1.00002V91ZM451 91H541H451ZM451 91V1.00003V91ZM541 91H631H541ZM541 91V1.00004V91ZM631 91H721H631ZM631 91V1.00005V91ZM721 91V1.00005V91ZM1.00012 136H91.0001H1.00012ZM1.00012 136V181V136ZM91.0001 136V181V136ZM1.00012 181H91.0001H1.00012ZM1.00012 181V271V181ZM91.0001 181V271V181ZM1.00012 271H91.0001H1.00012ZM1.00012 271V361V271ZM91.0001 271V361V271ZM1.00012 361H91.0001H1.00012ZM1.00012 361V451V361ZM91.0001 361V451V361ZM1.00012 451H91.0001H1.00012ZM1.00012 451V496V451ZM721 451H811V541H721V451ZM721 451H631H721ZM721 451V541V451ZM721 451V271V451ZM631 451H541H631ZM631 451V541V451ZM541 451H451H541ZM541 451V271V451ZM541 451V541V451ZM451 451H406H451ZM451 451V541V451ZM406 451H361H406ZM361 451H181H361ZM361 451V541V451ZM181 451H91.0001H181ZM181 451V496V451ZM181 1.00001L271 1.00002L181 1.00001ZM181 1.00001L91.0001 1L181 1.00001ZM271 1.00002H361H271ZM361 1.00002L451 1.00003L361 1.00002ZM361 271H451H361ZM451 1.00003L541 1.00004L451 1.00003ZM541 1.00004L631 1.00005L541 1.00004ZM541 271H451H541ZM541 271H631H541ZM631 1.00005H721H631ZM721 1.00005L811 1.00006L721 1.00005ZM811 1.00006H823H833.5L856 1.00007L811 1.00006ZM856 1.00007H901H856ZM901 1.00007L991 1.00008L901 1.00007ZM991 1.00008V46V1.00008ZM991 1.00008L1081 1.00001L991 1.00008ZM991 91.0001V46V91.0001ZM991 91.0001L1081 91L991 91.0001ZM991 91.0001V136V91.0001ZM991 181V158.5V181ZM991 181H1036H991ZM991 181V271V181ZM946 271H991H946ZM991 271H1081H991ZM721 271H631H721ZM451 361V271V361ZM91.0001 451V496V451ZM406 878.5H451H406ZM406 878.5V856V878.5ZM406 878.5V901V878.5ZM451 878.5V856V878.5ZM451 878.5V901V878.5ZM451 856H406H451ZM451 856V811V856ZM361 856H383.5H361ZM361 856V811V856ZM361 856V901V856ZM383.5 856V833.5V856ZM383.5 856H406H383.5ZM394 833.5V811V833.5ZM394 833.5H406H394ZM394 833.5H383.5H394ZM394 811H406H394ZM394 811H383.5H394ZM406 811V823V811ZM406 811H451H406ZM383.5 811H361H383.5ZM383.5 811V833.5V811ZM406 823H394.75H406ZM406 823V833.5V823ZM406 833.5V856V833.5ZM181 811V721V811ZM181 811H91.0001H181ZM181 811V901V811ZM181 721V631V721ZM181 721H91.0001H181ZM181 721H271H181ZM181 631V586V631ZM181 631H91.0001H181ZM181 631H226H181ZM181 586V541V586ZM181 586H91.0001H181ZM181 586H226H181ZM181 541V496V541ZM181 541H91.0001H181ZM181 541H226H181ZM181 496H91.0001H181ZM901 856V811V856ZM901 856L946 855.625L901 856ZM901 856V901V856ZM901 811H946H901ZM901 811H811H901ZM946 811V855.625V811ZM946 811H991H946ZM946 855.625V901V855.625ZM361 811V721V811ZM271 721V631V721ZM271 721H361H271ZM271 631V586V631ZM271 631H226H271ZM271 631H361H271ZM271 586H226H271ZM271 586V541V586ZM46.0001 631V608.5V631ZM46.0001 631H91.0001H46.0001ZM46.0001 631H1.00012H46.0001ZM46.0001 608.5V586V608.5ZM46.0001 608.5H1.00012H46.0001ZM46.0001 586H91.0001H46.0001ZM46.0001 586H1.00012H46.0001ZM91.0001 586V631V586ZM91.0001 586V541V586ZM226 586V631V586ZM226 586V541V586ZM91.0001 631V721V631ZM226 541V540.625V541ZM226 541H271H226ZM1.00012 496H91.0001H1.00012ZM1.00012 496V541V496ZM91.0001 496V541V496ZM1.00012 541V586V541ZM1.00012 541H91.0001H1.00012ZM1.00012 586V608.5V586ZM1.00012 608.5V631V608.5ZM1.00012 631V721V631ZM1.00012 721H91.0001H1.00012ZM1.00012 721V811V721ZM91.0001 721V811V721ZM1.00012 811H91.0001H1.00012ZM1.00012 811V901H91.0001L1.00012 811ZM91.0001 811V901V811ZM946 901H991H946ZM946 901H901H946ZM991 901V811V901ZM991 901H1081H991ZM901 901H811H901ZM811 901V811V901ZM811 901H631H811ZM631 901H541H631ZM631 901V811V901ZM541 901H451H541ZM541 901V811V901ZM451 901H406H451ZM406 901H361H406ZM361 901H181H361ZM181 901H91.0001H181ZM271 541V451V541ZM271 541H361H271ZM361 721V631V721ZM361 631V541V631ZM361 541H451H361ZM991 811H1081V901L991 811ZM451 811H541H451ZM451 541H541H451ZM811 811H631H811ZM721 541H631H721ZM631 541H541H631ZM541 811H631H541ZM1306 878.5H1351H1306ZM1306 878.5V856V878.5ZM1306 878.5V901V878.5ZM1351 878.5V856V878.5ZM1351 878.5V901V878.5ZM1351 856H1306H1351ZM1351 856V811V856ZM1261 856H1283.5H1261ZM1261 856V811H1283.5L1261 856ZM1261 856V901V856ZM1283.5 856V833.5V856ZM1283.5 856H1306H1283.5ZM1294 833.5V811V833.5ZM1294 833.5H1306H1294ZM1294 833.5H1283.5H1294ZM1294 811H1306H1294ZM1294 811H1283.5H1294ZM1306 811V823V811ZM1306 811H1351H1306ZM1283.5 811V833.5V811ZM1306 823H1294.75H1306ZM1306 823V833.5V823ZM1306 833.5V856V833.5ZM1711 518.5H1723H1733.5H1711ZM1711 518.5V496V518.5ZM1711 518.5V541V518.5ZM1733.5 518.5V496V518.5ZM1733.5 518.5V541V518.5ZM1711 496H1723H1733.5H1711ZM1711 496V451V496ZM1733.5 496H1756H1733.5ZM1756 496H1801H1756ZM1756 496V541V496ZM1756 496V451V496ZM1801 496V541V496ZM1801 496V451V496ZM1846 676V631V676ZM1846 676H1801H1846ZM1846 676H1891H1846ZM1846 631H1801H1846ZM1846 631H1891H1846ZM1801 676V631V676ZM1801 676V721V676ZM1756 541H1733.5H1756ZM1756 541H1801H1756ZM1733.5 541H1723H1711H1733.5ZM1711 541H1621H1711ZM1801 631V541V631ZM1801 541H1891H1801ZM1801 721H1891H1801ZM1801 721H1711H1801ZM1801 856V811V856ZM1801 856L1846 855.625L1801 856ZM1801 856V901V856ZM1801 811H1846H1801ZM1801 811H1711H1801ZM1846 811V855.625V811ZM1846 811H1891H1846ZM1846 855.625V901V855.625ZM1846 901H1891V811L1846 901ZM1846 901H1801H1846ZM1801 901H1711H1801ZM1711 901V811V901ZM1711 901H1621H1711ZM1711 811V721V811ZM1711 811H1621H1711ZM1711 721V720.625V721ZM1711 721H1621H1711ZM1621 901V811V901ZM1621 901H1531H1621ZM1621 811V721V811ZM1621 811H1531H1621ZM1621 721V631V721ZM1621 721H1531H1621ZM1621 631V541V631ZM1621 631H1531H1621ZM1531 901H1441H1531ZM1531 901V811V901ZM1441 901H1351H1441ZM1441 901V811V901ZM1351 901H1306H1351ZM1306 901H1261H1306ZM1261 901H1081H1261ZM1621 541V451V541ZM1621 541H1531H1621ZM1621 451H1711H1621ZM1621 451V361V451ZM1621 451H1531H1621ZM1711 451H1801H1711ZM1711 451V361V451ZM1801 451H1846H1801ZM1801 451V406V451ZM1891 541V451V541ZM1891 541V631V541ZM1891 451H1846H1891ZM1891 451V361V451ZM1891 631V676V631ZM1891 676V721V676ZM1891 721V811V721ZM1261 541V451V541ZM1261 541H1171H1261ZM1261 541H1441H1261ZM1261 451H1306H1261ZM1261 451V406V451ZM1261 451H1081V541H1171L1261 451ZM1171 541V451V541ZM1531 721V811V721ZM1531 721V631V721ZM1531 811H1441H1531ZM1531 631V541V631ZM1531 541V451V541ZM1531 541H1441H1531ZM1531 451H1441H1531ZM1531 451V361V451ZM1441 541V451V541ZM1441 451H1351H1441ZM1441 451V361V451ZM1441 811H1351H1441ZM1306 428.5H1351H1306ZM1306 428.5V406V428.5ZM1306 428.5V451V428.5ZM1351 428.5V406V428.5ZM1351 428.5V451V428.5ZM1351 406H1306H1351ZM1351 406V361V406ZM1261 406H1283.5H1261ZM1261 406V361V406ZM1283.5 406V383.5V406ZM1283.5 406H1306H1283.5ZM1294 383.5V361V383.5ZM1294 383.5H1306H1294ZM1294 383.5H1283.5H1294ZM1294 361H1306H1294ZM1294 361H1283.5H1294ZM1306 361V373V361ZM1306 361H1351H1306ZM1283.5 361H1261H1283.5ZM1283.5 361V383.5V361ZM1306 373H1294.75H1306ZM1306 373V383.5V373ZM1306 383.5V406V383.5ZM1711 68.5001H1723H1733.5H1711ZM1711 68.5001V46.0001V68.5001ZM1711 68.5001V91V68.5001ZM1733.5 68.5001V46.0001V68.5001ZM1733.5 68.5001V91V68.5001ZM1711 46.0001H1723H1733.5H1711ZM1711 46.0001V1.00006V46.0001ZM1733.5 46.0001H1756H1733.5ZM1756 46.0001H1801H1756ZM1756 46.0001V91V46.0001ZM1756 46.0001V1.00007V46.0001ZM1801 46.0001V91.0001V46.0001ZM1801 46.0001V1.00007V46.0001ZM1846 226V181V226ZM1846 226H1801H1846ZM1846 226H1891H1846ZM1846 181H1801H1846ZM1846 181H1891H1846ZM1801 226V181V226ZM1801 226V271V226ZM1756 91H1733.5H1756ZM1756 91L1801 91.0001L1756 91ZM1733.5 91H1723H1711H1733.5ZM1711 91H1621H1711ZM1801 181V91.0001V181ZM1801 91.0001H1891H1801ZM1801 271H1711H1801ZM1801 271H1891H1801ZM1801 406V361V406ZM1801 406L1846 405.625L1801 406ZM1801 361H1711H1801ZM1801 361H1846H1801ZM1351 361H1441H1351ZM1351 361V271V361ZM1441 361H1531H1441ZM1441 361V271V361ZM1531 361H1621H1531ZM1531 361V271V361ZM1621 361H1711H1621ZM1621 361V271V361ZM1711 361V271V361ZM1846 361V405.625V361ZM1846 361H1891H1846ZM1846 405.625V451V405.625ZM1261 361V271V361ZM1171 271H1261H1171ZM1171 271V181V271ZM1171 271H1081H1171ZM1261 271H1351H1261ZM1261 271V181V271ZM1351 271H1441H1351ZM1351 271V181V271ZM1441 271H1531H1441ZM1441 271V181V271ZM1531 271H1621H1531ZM1531 271V181V271ZM1621 271H1711H1621ZM1621 271V181V271ZM1711 271V270.625V271ZM1171 181V136V181ZM1171 181H1126H1171ZM1171 181H1261H1171ZM1171 136H1126H1171ZM1171 136V91V136ZM1036 181V158.5V181ZM1036 181H1081H1036ZM1036 158.5V136V158.5ZM1036 158.5H991H1036ZM1036 136H1081H1036ZM1036 136H991H1036ZM1081 136H1126H1081ZM1081 136V181V136ZM1081 136V91V136ZM1126 136V181V136ZM1126 136V91V136ZM1081 181H1126H1081ZM1081 181V271V181ZM1261 181H1351H1261ZM1261 181V91V181ZM1351 181H1441H1351ZM1351 181V91V181ZM1441 181H1531H1441ZM1441 181V91V181ZM1531 181H1621H1531ZM1531 181V91V181ZM1621 181V91V181ZM1126 91V90.625V91ZM1126 91H1081H1126ZM1126 91H1171H1126ZM991 46H1081H991ZM1081 46V1.00001V46ZM1081 46V91V46ZM1171 91H1261H1171ZM1171 91V1.00002V91ZM1261 91H1351H1261ZM1261 91V1.00002V91ZM1351 91H1441H1351ZM1351 91V1.00003V91ZM1441 91H1531H1441ZM1441 91V1.00004V91ZM1531 91H1621H1531ZM1531 91V1.00005V91ZM1621 91V1.00005V91ZM991 136V158.5V136ZM1351 451H1306H1351ZM1081 1.00001L1171 1.00002L1081 1.00001ZM1171 1.00002H1261H1171ZM1261 1.00002L1351 1.00003L1261 1.00002ZM1351 1.00003L1441 1.00004L1351 1.00003ZM1441 1.00004L1531 1.00005L1441 1.00004ZM1531 1.00005H1621H1531ZM1621 1.00005L1711 1.00006L1621 1.00005ZM1711 1.00006H1723H1733.5L1756 1.00007L1711 1.00006ZM1756 1.00007H1801H1756ZM1801 1.00007L1891 1.00008V91.0001L1801 1.00007ZM1891 91.0001V181V91.0001ZM1891 181V226V181ZM1891 226V271V226Z" stroke="#FBFBFB"/>
<path d="M721 0.5V541.5" stroke="#FBFBFB"/>
<path d="M1081 0.5V271.5" stroke="#FBFBFB"/>
<path d="M991 271.5V0.5" stroke="#FBFBFB"/>
<path d="M901 0.5V271.5" stroke="#FBFBFB"/>
<path d="M1081 451.5V541.5" stroke="#FBFBFB"/>
<path d="M1261 541.5V0.5" stroke="#FBFBFB"/>
<path d="M811 541.5V450.5" stroke="#FBFBFB"/>
<path d="M990.5 271H1891.5" stroke="#FBFBFB"/>
<path d="M1.5 451H811.5" stroke="#FBFBFB"/>
<path d="M811.5 541H1.5" stroke="#FBFBFB"/>
<path d="M1890.5 451H1080.5" stroke="#FBFBFB"/>
<path d="M1080.5 541H1890.5" stroke="#FBFBFB"/>
<path d="M721.5 271H0.5" stroke="#FBFBFB"/>
<path d="M1621.5 181H0.5" stroke="#FBFBFB"/>
<path d="M270.5 91H1891.5" stroke="#FBFBFB"/>
</g>
<defs>
<clipPath id="clip0_19_24">
<rect width="1892" height="902" fill="white"/>
</clipPath>
</defs>
</svg>
